<?xml version="1.0" encoding="UTF-8" standalone="no"?>
<!-- Created with Inkscape (http://www.inkscape.org/) -->

<svg
   viewBox="-1 -2 2 2"
   version="1.1"
   id="svg1"
   inkscape:version="1.4-rc1 (61ec3f24, 2024-09-26)"
   sodipodi:docname="tree1.svg"
   xmlns:inkscape="http://www.inkscape.org/namespaces/inkscape"
   xmlns:sodipodi="http://sodipodi.sourceforge.net/DTD/sodipodi-0.dtd"
   xmlns="http://www.w3.org/2000/svg"
   xmlns:svg="http://www.w3.org/2000/svg">
  <sodipodi:namedview
     id="namedview1"
     pagecolor="#ffffff"
     bordercolor="#000000"
     borderopacity="0.25"
     inkscape:showpageshadow="2"
     inkscape:pageopacity="0.0"
     inkscape:pagecheckerboard="0"
     inkscape:deskcolor="#d1d1d1"
     inkscape:document-units="px"
     showgrid="true"
     inkscape:zoom="1.8325"
     inkscape:cx="100.13643"
     inkscape:cy="100.13643"
     inkscape:window-width="1440"
     inkscape:window-height="900"
     inkscape:window-x="0"
     inkscape:window-y="0"
     inkscape:window-maximized="0"
     inkscape:current-layer="layer1">
    <inkscape:grid
       id="grid1"
       units="px"
       originx="0"
       originy="0"
       spacingx="0.1"
       spacingy="0.1"
       empcolor="#0099e5"
       empopacity="0.30196078"
       color="#0099e5"
       opacity="0.14901961"
       empspacing="5"
       dotted="false"
       gridanglex="30"
       gridanglez="30"
       visible="true" />
  </sodipodi:namedview>
  <defs
     id="defs1" />
  <g
     inkscape:label="Layer 1"
     inkscape:groupmode="layer"
     id="layer1">
    <path
       id="Xman"
       style="display:inline;fill:none;fill-opacity:1;stroke:#000000;stroke-width:0.04;stroke-linecap:butt;stroke-linejoin:miter"
       d="M -0.2,0 0,-0.7 0.2,0 M -0.3,-0.8 0,-1.3 0.3,-0.8 M 0,-0.7 v -0.75 a 0.125,0.125 0 0 1 0,-0.25 0.125,0.125 0 1 1 0,0.25"
       inkscape:label="man"
       sodipodi:nodetypes="ccccccccsssc" />
    <path
       id="Xbench"
       style="display:inline;fill:none;fill-opacity:1;stroke:#000000;stroke-width:0.04;stroke-linecap:butt;stroke-linejoin:bevel"
       d="M -0.7,0 V -0.4 M 0.7,0 v -0.4 m 0.3,0 h -2"
       inkscape:label="bench"
       sodipodi:nodetypes="cccccc" />
    <path
       id="Xtable"
       style="display:inline;fill:none;fill-opacity:1;stroke:#000000;stroke-width:0.04;stroke-linecap:butt;stroke-linejoin:bevel"
       d="m -0.6,0 0.2,-0.8 M 0.6,0 0.4,-0.8 m 0.4,0 H -0.8 M -1,-0.4 h 2"
       inkscape:label="table"
       sodipodi:nodetypes="cccccccc" />
    <path
       id="Xinfo-board"
       style="display:inline;fill:none;fill-opacity:1;stroke:#000000;stroke-width:0.04;stroke-linecap:butt;stroke-linejoin:miter"
       d="M -0.4,0 V -0.7 M 0.4,0 v -0.7 m 0.1,0 h -1 v -0.7 h 1 z"
       inkscape:label="info-board" />
    <path
       id="Xinfo-board-2"
       style="display:inline;fill:none;fill-opacity:1;stroke:#000000;stroke-width:0.04;stroke-linecap:butt;stroke-linejoin:miter"
       d="M -0.7,0 V -0.7 M 0.7,0 v -0.7 m 0.2,0 H -0.9 V -2 h 1.8 z"
       inkscape:label="info-board-2"
       sodipodi:nodetypes="ccccccccc" />
    <path
       id="Xguide-post"
       style="display:inline;fill:none;fill-opacity:1;stroke:#000000;stroke-width:0.04;stroke-linecap:butt;stroke-linejoin:miter"
       d="m 0,0 v -1.4 h -0.7 m 0,0.6 H 0 m 0,-0.3 h 0.7"
       inkscape:label="guide-post" />
    <path
       id="path8"
       style="display:inline;fill:none;fill-opacity:1;stroke:#000000;stroke-width:0.04;stroke-linecap:butt;stroke-linejoin:miter"
       d="m 0,0 v -2 h -0.9 m 0,0.6 H 0 m 0,-0.3 h 0.9 m 0,0.6 H 0"
       inkscape:label="guide-post-2"
       sodipodi:nodetypes="ccccccccc" />
    <path
       id="Xvending-machine"
       style="display:inline;fill:none;fill-opacity:1;stroke:#000000;stroke-width:0.04;stroke-linecap:butt;stroke-linejoin:miter"
       d="m -0.5,0 v -1.8 h 1 V 0 Z m 0.1,-0.8 v -0.9 h 0.8 v 0.9 z m 0.3,0.2 h 0.2 v 0.2 h -0.2 z m 0.4,0 h 0.1 v 0.1 H 0.3 Z"
       inkscape:label="vending-machine"
       sodipodi:nodetypes="ccc" />
  </g>
</svg>
