<?xml version="1.0" encoding="UTF-8" standalone="no"?>
<!-- Created with Inkscape (http://www.inkscape.org/) -->

<svg
   width="300mm"
   height="400mm"
   viewBox="0 0 300 400"
   version="1.1"
   id="svg1"
   inkscape:version="1.4.2 (1:1.4.2+202505120737+ebf0e940d0)"
   sodipodi:docname="2f.inkscape.svg"
   xmlns:inkscape="http://www.inkscape.org/namespaces/inkscape"
   xmlns:sodipodi="http://sodipodi.sourceforge.net/DTD/sodipodi-0.dtd"
   xmlns:xlink="http://www.w3.org/1999/xlink"
   xmlns="http://www.w3.org/2000/svg"
   xmlns:svg="http://www.w3.org/2000/svg">
  <sodipodi:namedview
     id="namedview1"
     pagecolor="#cccccc"
     bordercolor="#000000"
     borderopacity="0.25"
     inkscape:showpageshadow="2"
     inkscape:pageopacity="0.0"
     inkscape:pagecheckerboard="0"
     inkscape:deskcolor="#d1d1d1"
     inkscape:document-units="mm"
     showgrid="true"
     inkscape:zoom="0.74810937"
     inkscape:cx="462.49922"
     inkscape:cy="856.82659"
     inkscape:window-width="2560"
     inkscape:window-height="1363"
     inkscape:window-x="0"
     inkscape:window-y="0"
     inkscape:window-maximized="1"
     inkscape:current-layer="layer1">
    <inkscape:grid
       id="grid1"
       units="mm"
       originx="0"
       originy="0"
       spacingx="10"
       spacingy="10"
       empcolor="#0099e5"
       empopacity="0.30196078"
       color="#0099e5"
       opacity="0.14901961"
       empspacing="5"
       enabled="true"
       visible="true" />
  </sodipodi:namedview>
  <defs
     id="defs1">
    <symbol
       id="AigaSymbols.svg:Escalator_Inv">
      <title
         id="title47">Escalator</title>
      <rect
         x="0.5"
         y="0.5"
         width="71"
         height="71"
         ry="6"
         style="stroke:#ffffff"
         id="rect47" />
      <path
         d="m 55,28 c -1,0 -2,0 -3,1 L 27,54 c -2,2 -4,3 -6,3 h -9 a 6,6 0 1 1 0,-12 h 5 c 1,0 2,0 3,-1 L 45,19 c 2,-2 4,-3 6,-3 h 9 a 6,6 0 1 1 0,12 z"
         style="fill:none;stroke:#ffffff;stroke-width:4"
         id="path48" />
      <path
         d="m 27,35 9,-9 v -3 a 4.5,4.5 0 0 0 -9,0 z"
         style="fill:#ffffff;stroke:none"
         id="path49" />
      <circle
         cx="31.5"
         cy="13.5"
         r="4.5"
         style="fill:#ffffff;stroke:none"
         id="circle49" />
    </symbol>
    <symbol
       id="AigaSymbols.svg:Stairs_Inv">
      <title
         id="title62">Stairs</title>
      <rect
         x="0.5"
         y="0.5"
         width="71"
         height="71"
         ry="6"
         style="stroke:#ffffff"
         id="rect62" />
      <path
         d="m 9,56.5 h 12 v -10 h 10 v -10 h 10 v -10 h 10 v -10 h 12"
         style="fill:none;stroke:#ffffff;stroke-width:5"
         id="path63" />
    </symbol>
    <symbol
       id="AigaSymbols.svg:Elevator_Inv">
      <title
         id="title75">Elevator</title>
      <rect
         x="0.5"
         y="0.5"
         width="71"
         height="71"
         ry="6"
         style="stroke:#ffffff"
         id="rect75" />
      <g
         style="fill:none;stroke:#ffffff;stroke-width:5;stroke-linecap:round;stroke-linejoin:round"
         id="g76">
        <!-- Arrow up -->
        <path
           d="M 26.5,23.5 V 6.5 M 20,14 26.5,6.5 33,14"
           id="path75" />
        <!-- Arrow down -->
        <path
           d="m 45.5,6.5 v 17 M 39,16 45.5,23.5 52,16"
           id="path76" />
      </g>
      <rect
         x="17"
         y="28"
         width="38"
         height="38"
         ry="5"
         style="fill:#ffffff;stroke:none"
         id="rect76" />
      <rect
         x="22"
         y="33"
         width="28"
         height="28"
         style="stroke:none"
         id="rect77" />
      <g
         id="person2"
         style="fill:#ffffff;stroke:none">
        <circle
           cx="27.5"
           cy="38.75"
           r="1.75"
           id="circle77" />
        <path
           d="m 24.5,41 a 1,1 0 0 0 -1,1 v 7 a 1,1 0 0 0 1,1 h 0.25 v 8.5 a 1.25,1.25 0 1 0 2.5,0 V 50 h 0.5 v 8.5 a 1.25,1.25 0 1 0 2.5,0 V 50 h 0.25 a 1,1 0 0 0 1,-1 v -7 a 1,1 0 0 0 -1,-1 z"
           id="path77" />
      </g>
      <use
         x="8.5"
         xlink:href="#person2"
         id="use77" />
      <use
         x="17"
         xlink:href="#person2"
         id="use78" />
    </symbol>
    <symbol
       id="AigaSymbols.svg:Toilets_Inv">
      <title
         id="title83">Toilets</title>
      <rect
         x="0.5"
         y="0.5"
         width="71"
         height="71"
         ry="6"
         style="stroke:#ffffff"
         id="rect83" />
      <g
         style="fill:#ffffff;stroke:none"
         id="g85">
        <!-- Divider -->
        <rect
           x="33.5"
           y="12"
           width="5"
           height="48"
           id="rect84" />
        <!-- Woman -->
        <circle
           cx="19.5"
           cy="15"
           r="4"
           id="circle84" />
        <path
           d="m 19,44.5 v 14 a 2,2 0 0 1 -4,0 v -14 H 10 L 15.5,26 h -1 l -3,10.5 A 1.821,1.821 0 0 1 8,35.5 l 3.5,-12 A 5.7,4.6 0 0 1 17,20 h 5 a 5.7,4.6 0 0 1 5.5,3.5 l 3.5,12 a 1.821,1.821 0 0 1 -3.5,1 L 24.5,26 h -1 L 29,44.5 h -5 v 14 a 2,2 0 0 1 -4,0 v -14 z"
           id="path84" />
        <!-- Man -->
        <circle
           cx="52.5"
           cy="15"
           r="4"
           id="circle85" />
        <path
           d="m 43,25 v 13 a 1.75,1.75 0 0 0 3.5,0 V 26.5 h 1 v 31.75 a 2.25,2.25 0 0 0 4.5,0 V 39.5 h 1 v 18.75 a 2.25,2.25 0 0 0 4.5,0 V 26.5 h 1 V 38 A 1.75,1.75 0 0 0 62,38 V 25 a 5,5 0 0 0 -5,-5 h -9 a 5,5 0 0 0 -5,5 z"
           id="path85" />
      </g>
    </symbol>
  </defs>
  <g
     inkscape:label="Layer 1"
     inkscape:groupmode="layer"
     id="layer1">
    <path
       style="fill:#ffffff;stroke-width:0.1"
       d="m 50,50 h 150 v 100 h 50 l 0,150 -200,0 z"
       id="path1"
       sodipodi:nodetypes="ccccccc" />
    <path
       style="fill:none;stroke-width:0.1;stroke:none"
       d="m 100,300 h 150 v 50 H 100 Z"
       id="path11" />
    <g
       id="g2">
      <path
         style="fill:#de8787;stroke-width:0.1"
         d="m 50,60 h 30 v 40 H 50 Z"
         id="path2"
         sodipodi:nodetypes="ccccc" />
      <path
         style="fill:#de8787;stroke-width:0.1"
         d="m 50,110 h 30 v 40 H 50 Z"
         id="path3"
         sodipodi:nodetypes="ccccc" />
      <path
         style="fill:#de8787;stroke-width:0.1"
         d="m 50,160 h 30 v 40 H 50 Z"
         id="path4"
         sodipodi:nodetypes="ccccc" />
      <path
         style="fill:#de8787;stroke-width:0.1"
         d="m 110,60 h 80 l 0,90 h -80 z"
         id="path5"
         sodipodi:nodetypes="ccccc" />
      <path
         style="fill:#ccff00;stroke-width:0.1"
         d="m 50,210 h 30 v 80 H 50 Z"
         id="path6"
         sodipodi:nodetypes="ccccc" />
      <path
         style="fill:#00aad4;stroke-width:0.1"
         d="M 200,250 240,250 v 20 h -40 z"
         id="path8" />
      <path
         style="fill:#d4aa00;stroke-width:0.1"
         d="m 180,160 0,110 h -70 l 0,-110 z"
         id="path9"
         sodipodi:nodetypes="ccccc" />
      <path
         style="fill:#00aad4;stroke-width:0.1"
         d="m 200,220 h 40 v 20 l -40,0 z"
         id="path10" />
      <path
         style="fill:#00aad4;stroke-width:0.1"
         d="m 200,160 h 40 v 20 h -40 z"
         id="path7" />
    </g>
    <g
       id="g1">
      <use
         xlink:href="#AigaSymbols.svg:Escalator_Inv"
         style="fill:#000000;stroke:#000000"
         id="use1"
         transform="matrix(0.25,0,0,0.25,140,280)" />
      <use
         xlink:href="#AigaSymbols.svg:Stairs_Inv"
         style="fill:#000000;stroke:#000000"
         id="use1-6"
         transform="matrix(0.25,0,0,0.25,55,190)" />
      <use
         xlink:href="#AigaSymbols.svg:Elevator_Inv"
         style="fill:#000000;stroke:#000000"
         id="use1-2"
         transform="matrix(0.25,0,0,0.25,230,280)" />
      <use
         xlink:href="#AigaSymbols.svg:Toilets_Inv"
         style="fill:#000000;stroke:#000000"
         id="use1-5"
         transform="matrix(0.25,0,0,0.25,55,280)" />
      <use
         xlink:href="#AigaSymbols.svg:Elevator_Inv"
         style="fill:#000000;stroke:#000000"
         id="use2"
         transform="matrix(0.25,0,0,0.25,180,40)" />
    </g>
  </g>
</svg>
