<svg xmlns="http://www.w3.org/2000/svg" viewBox="-35 -35 70 70">
  <path d="M-35-35h70v70h-70z" style="fill:khaki;stroke:none"/>
  <path d="M-10 5 0-10 10 5M-5 25 0 5l5 20M0-15V5m5-25a5 5 0 0 1-5 5 5 5 0 0 1-5-5 5 5 0 0 1 5-5 5 5 0 0 1 5 5M-20 .5l-1.25 3.75-5-10 10 5zm-6.25-6.25 12.5 12.5M-30-10h20v20h-20zM10-10h20v20H10ZM20 6.25v-12.5M26.25 0h-12.5m10-1.25L26.25 0l-2.5 1.25m-7.5 0L13.75 0l2.5-1.25m5 5L20 6.25l-1.25-2.5m0-7.5L20-6.25l1.25 2.5" style="fill:none;stroke:#000;stroke-width:.7;stroke-linecap:round;stroke-linejoin:round"/>
</svg>
