<svg xmlns="http://www.w3.org/2000/svg" viewBox="0 0 14 14"><defs><clipPath id="a" clipPathUnits="userSpaceOnUse"><path d="M6 8.75h2.5V8.4L7 7.4H6Z" style="opacity:.5;fill:#00f;stroke-width:10;stroke-linejoin:round"/></clipPath><clipPath id="b" clipPathUnits="userSpaceOnUse"><path d="M8 5.25H5.5v.35l1.5 1h1z" style="opacity:.5;fill:#00f;stroke-width:10;stroke-linejoin:round"/></clipPath></defs><path d="m13 10-5 3H6l-5-3V1h5l1 1 1-1h5z" style="fill:#ff0;stroke:#000;stroke-width:1"/><path d="M9.5 5.5a4 1.5 0 0 1 4 1.5 4 1.5 0 0 1-4 1.5" style="fill:#000;stroke-width:1"/><path d="M4.5 8.5A4 1.5 0 0 1 .5 7a4 1.5 0 0 1 4-1.5" style="fill:#000;stroke:none;stroke-width:.666999;stroke-linejoin:round"/><path d="M3.5 3v6l2.65 2.5h1.7L10.5 9V3H7.85L7 3.5 6.15 3Zm1 1.5h5v4l-1.65 1h-1.7l-1.65-1Z" style="baseline-shift:baseline;overflow:visible;vector-effect:none;fill:#000"/><path d="M4 5.4v1.1l3 2 .3-.9zM7 5.5l-.3.9L10 8.6V7.5Z" style="baseline-shift:baseline;overflow:visible;opacity:1;vector-effect:none;fill:#000"/><ellipse cx="4.5" cy="4.25" rx="1" ry=".75" style="fill:#000"/><ellipse cx="9.5" cy="4.25" rx="1" ry=".75" style="fill:#000"/><ellipse cx="9.5" cy="7" rx="1" ry=".75" style="fill:#000"/><ellipse cx="4.5" cy="7" rx="1" ry=".75" style="fill:#000"/><ellipse cx="7" cy="8.25" clip-path="url(#a)" rx="1" ry=".75" style="fill:#000"/><ellipse cx="7" cy="5.75" clip-path="url(#b)" rx="1" ry=".75" style="fill:#000"/></svg>