<?xml version="1.0" encoding="UTF-8" standalone="no"?>
<!-- Created with Inkscape (http://www.inkscape.org/) -->

<svg
   viewBox="-100 -200 200 200"
   version="1.1"
   id="svg1"
   inkscape:version="1.4-rc1 (61ec3f24, 2024-09-26)"
   sodipodi:docname="tree1.svg"
   style="background-color:khaki"
   xmlns:inkscape="http://www.inkscape.org/namespaces/inkscape"
   xmlns:sodipodi="http://sodipodi.sourceforge.net/DTD/sodipodi-0.dtd"
   xmlns="http://www.w3.org/2000/svg"
   xmlns:svg="http://www.w3.org/2000/svg">
  <sodipodi:namedview
     id="namedview1"
     pagecolor="#ffffff"
     bordercolor="#000000"
     borderopacity="0.25"
     inkscape:showpageshadow="2"
     inkscape:pageopacity="0.0"
     inkscape:pagecheckerboard="0"
     inkscape:deskcolor="#d1d1d1"
     inkscape:document-units="px"
     showgrid="true"
     inkscape:zoom="1.8325"
     inkscape:cx="101.22783"
     inkscape:cy="92.496589"
     inkscape:window-width="1440"
     inkscape:window-height="900"
     inkscape:window-x="0"
     inkscape:window-y="0"
     inkscape:window-maximized="0"
     inkscape:current-layer="layer1">
    <inkscape:grid
       id="grid1"
       units="px"
       originx="0"
       originy="0"
       spacingx="10"
       spacingy="10"
       empcolor="#0099e5"
       empopacity="0.30196078"
       color="#0099e5"
       opacity="0.14901961"
       empspacing="5"
       dotted="false"
       gridanglex="30"
       gridanglez="30"
       visible="true" />
  </sodipodi:namedview>
  <defs
     id="defs1" />
  <g
     inkscape:label="Layer 1"
     inkscape:groupmode="layer"
     id="layer1">
    <path
       id="path7"
       style="display:inline;fill:none;fill-opacity:1;stroke:#000000;stroke-width:4;stroke-linecap:butt;stroke-linejoin:miter"
       d="M -20,0 0,-70 20,0 m -50,-80 30,-50 30,50 M 0,-70 v -75 a 12.5,12.5 0 0 1 0,-25 12.5,12.5 0 1 1 0,25"
       inkscape:label="man"
       sodipodi:nodetypes="ccccccccsssc" />
    <path
       id="path3"
       style="display:inline;fill:none;fill-opacity:1;stroke:#000000;stroke-width:4;stroke-linecap:butt;stroke-linejoin:bevel"
       d="M -70,0 V -40 M 70,0 v -40 m 30,0 h -200"
       inkscape:label="bench"
       sodipodi:nodetypes="cccccc" />
    <path
       id="path15"
       style="display:inline;fill:none;fill-opacity:1;stroke:#000000;stroke-width:4;stroke-linecap:butt;stroke-linejoin:bevel"
       d="m -60,0 20,-80 M 60,0 40,-80 m 40,0 H -80 m -20,40 h 200"
       inkscape:label="table"
       sodipodi:nodetypes="cccccccc" />
    <path
       id="path4"
       style="display:inline;fill:none;fill-opacity:1;stroke:#000000;stroke-width:4;stroke-linecap:butt;stroke-linejoin:miter"
       d="M -40,0 V -70 M 40,0 v -70 m 10,0 H -50 v -70 H 50 Z"
       inkscape:label="info-board" />
    <path
       id="path9"
       style="display:inline;fill:none;fill-opacity:1;stroke:#000000;stroke-width:4;stroke-linecap:butt;stroke-linejoin:miter"
       d="M -70,0 V -70 M 70,0 v -70 m 20,0 H -90 V -200 H 90 Z"
       inkscape:label="info-board-2"
       sodipodi:nodetypes="ccccccccc" />
    <path
       id="path6"
       style="display:inline;fill:none;fill-opacity:1;stroke:#000000;stroke-width:4;stroke-linecap:butt;stroke-linejoin:miter"
       d="m 0,0 v -140 h -70 m 0,60 H 0 m 0,-30 h 70"
       inkscape:label="guide-post" />
    <path
       id="path8"
       style="display:inline;fill:none;fill-opacity:1;stroke:#000000;stroke-width:4;stroke-linecap:butt;stroke-linejoin:miter"
       d="m 0,0 v -200 h -90 m 0,60 H 0 m 0,-30 h 90 m 0,60 H 0"
       inkscape:label="guide-post-2"
       sodipodi:nodetypes="ccccccccc" />
    <path
       id="path16"
       style="display:inline;fill:none;fill-opacity:1;stroke:#000000;stroke-width:4;stroke-linecap:butt;stroke-linejoin:miter"
       d="M -50,0 V -180 H 50 v 180 z m 10,-80 v -90 h 80 v 90 z m 30,20 h 20 v 20 h -20 z m 40,0 h 10 v 10 h -10 z"
       inkscape:label="vending-machine"
       sodipodi:nodetypes="ccc" />
  </g>
</svg>
