<?xml version="1.0" encoding="UTF-8" standalone="no"?>
<svg
   viewBox="-35 -35 70 70"
   version="1.1"
   id="svg1"
   xmlns="http://www.w3.org/2000/svg"
   xmlns:svg="http://www.w3.org/2000/svg">
  <defs
     id="defs1" />
  <g
     id="layer1">
    <rect
       style="fill:wheat;fill-opacity:1;stroke:none;stroke-width:0.7;stroke-linecap:round;stroke-linejoin:round;stroke-dasharray:none"
       id="rect19"
       width="70"
       height="70"
       x="-35"
       y="-35" />
    <path
       id="path4"
       style="fill:none;fill-opacity:1;stroke:#000000;stroke-width:0.7;stroke-linecap:round;stroke-linejoin:round;stroke-dasharray:none"
       d="M -10,5 0,-10 10,5 M -5,25 0,5 5,25 M 0,-15 V 5 m 5,-25 a 5,5 0 0 1 -5,5 5,5 0 0 1 -5,-5 5,5 0 0 1 5,-5 5,5 0 0 1 5,5 z" />
    <path
       id="path18"
       style="fill:none;fill-opacity:1;stroke:#000000;stroke-width:0.7;stroke-linecap:round;stroke-linejoin:round;stroke-dasharray:none"
       d="m -20,0.5 -1.25,3.75 -5,-10 10,5 z m -6.25,-6.25 12.5,12.5 M -30,-10 h 20 v 20 h -20 z" />
    <path
       id="rect10"
       style="fill:none;stroke:#000000;stroke-width:0.7;stroke-linecap:round;stroke-linejoin:round"
       d="M 10,-10 H 30 V 10 H 10 Z M 20,6.25 V -6.25 M 26.25,0 h -12.5 m 12.5,0 m -2.5,-1.25 2.5,1.25 -2.5,1.25 M 13.75,0 m 2.5,1.25 -2.5,-1.25 2.5,-1.25 M 20,6.25 M 21.25,3.75 20,6.25 18.75,3.75 m 1.25,-10 m -1.25,2.5 1.25,-2.5 1.25,2.5" />
  </g>
</svg>
